<svg width="20" height="33" viewBox="0 0 20 33" fill="none" xmlns="http://www.w3.org/2000/svg">
<path d="M10.4112 33C9.97425 33 9.6105 32.6545 9.59302 32.2127C9.57882 31.8562 9.51983 31.3981 9.31993 31.2461C9.15389 31.1193 8.78249 31.0711 8.39034 31.0208C8.14893 30.9891 7.87475 30.9541 7.58965 30.8951C6.40117 30.6469 5.57317 30.098 5.19631 29.3085C4.9123 28.7126 4.94398 28.0915 5.28479 27.6016C5.68022 27.033 6.43176 26.7268 7.24665 26.8023C8.10742 26.8821 8.95399 26.9674 9.85627 27.1325C10.8252 27.3097 12.1983 27.4781 12.9422 26.8952C13.1268 26.7509 13.212 26.6131 13.2338 26.5508C13.2262 26.5421 13.2142 26.53 13.1956 26.5147C13.0022 26.354 12.4462 26.4032 12.0399 26.4404C11.8738 26.4557 11.7013 26.471 11.5363 26.4764C11.4293 26.4797 11.2883 26.4885 11.1212 26.4972C9.25985 26.6022 5.38529 26.8209 5.06523 24.482C4.97894 23.8522 5.21051 23.441 5.42024 23.207C5.80366 22.7784 6.41865 22.5805 7.29799 22.6034C7.60931 22.6111 7.92719 22.6264 8.23523 22.6417C9.63125 22.7084 11.0753 22.7773 12.2387 22.1978C13.3354 21.6521 13.532 20.8331 13.7876 19.4346C13.9111 18.7578 14.0378 18.0579 14.3338 17.3483C14.6408 16.6113 15.1542 16.0241 15.6064 15.5047C15.7309 15.3626 15.8489 15.227 15.9603 15.0914C16.6649 14.2396 17.3793 13.308 17.8326 12.2648C18.5983 10.5055 18.5142 8.4596 17.5956 6.5045C16.7129 4.62486 15.1771 3.08855 13.3813 2.28924C10.6602 1.07769 7.38866 1.59161 4.8413 3.63091C2.35839 5.61881 1.21579 8.50771 1.786 11.3573C2.08421 12.852 2.96027 13.8066 3.97397 14.9121C4.34974 15.3221 4.73753 15.7453 5.11657 16.2177C5.83752 17.1176 6.06692 18.1323 6.19581 19.006C6.3968 20.3662 6.78787 20.5259 7.1396 20.5685C7.8114 20.6494 8.78686 20.3739 9.00206 20.0426C9.3527 19.5024 9.27514 18.5434 9.24893 18.2296C9.12549 16.7174 9.08508 12.9067 9.07197 10.5284L6.95499 12.712C6.63931 13.0368 6.12153 13.0445 5.79601 12.7295C5.47158 12.4135 5.46394 11.8952 5.77853 11.5694L9.29262 7.94568C9.29918 7.93912 9.30573 7.93256 9.31338 7.9249C9.32102 7.91725 9.32867 7.90959 9.33632 7.90303C9.47941 7.7751 9.65528 7.70512 9.83443 7.69527C9.89123 7.69199 9.94803 7.69528 10.0059 7.70293C10.1621 7.72589 10.3118 7.79478 10.4363 7.9085C10.4505 7.92162 10.4647 7.93584 10.4789 7.95005L13.851 11.4699C14.1645 11.7968 14.1536 12.3162 13.827 12.6289C13.5003 12.9428 12.9815 12.9318 12.6691 12.6049L10.7105 10.5612C10.7247 12.922 10.764 16.6616 10.8809 18.0973C10.9453 18.8835 10.9617 20.0338 10.374 20.9392C9.67822 22.0108 7.94794 22.3213 6.94079 22.1989C4.97238 21.9605 4.67199 19.919 4.57258 19.2476C4.47099 18.5587 4.31151 17.8382 3.83634 17.2466C3.49225 16.8169 3.12194 16.4134 2.76474 16.0241C1.68332 14.8454 0.565845 13.6262 0.176969 11.682C-0.514488 8.21904 0.845487 4.73201 3.81558 2.35266C6.84794 -0.0759055 10.7684 -0.672932 14.0509 0.789017C18.2368 2.65336 21.4374 8.09329 19.3379 12.9187C18.8026 14.1488 18.0063 15.192 17.2253 16.1367C17.0985 16.2887 16.9686 16.4385 16.8429 16.5829C16.4366 17.0487 16.0521 17.4883 15.8489 17.977C15.6217 18.5238 15.5146 19.1077 15.4021 19.7266C15.1465 21.1327 14.856 22.7259 12.9717 23.6641C11.4249 24.4339 9.69024 24.3519 8.15986 24.2786C7.84744 24.2633 7.55142 24.2491 7.25758 24.2425C6.9539 24.2349 6.78459 24.2655 6.69829 24.2906C6.76056 24.4743 7.15708 24.7171 8.10415 24.8385C9.11457 24.9675 10.3151 24.9008 11.0316 24.8592C11.2141 24.8494 11.3681 24.8406 11.485 24.8363C11.604 24.8319 11.746 24.8199 11.8968 24.8057C12.5871 24.7433 13.5331 24.6591 14.2475 25.2529C14.6637 25.5995 14.8887 26.0609 14.8811 26.5541C14.8723 27.1358 14.5348 27.7306 13.9559 28.1855C12.7051 29.1663 10.9519 29.0001 9.56462 28.7454C8.72678 28.5923 7.95231 28.5136 7.09809 28.4348C6.86215 28.413 6.70266 28.4818 6.64804 28.5234C6.65241 28.5398 6.66006 28.5649 6.67754 28.5999C6.82173 28.9017 7.27724 29.1521 7.92719 29.2888C8.15002 29.3358 8.37942 29.3654 8.60226 29.3938C9.67057 29.5316 11.1343 29.7196 11.2326 32.146C11.2512 32.5987 10.8995 32.9803 10.4472 32.9989C10.4363 32.9989 10.4243 32.9989 10.4134 32.9989L10.4112 33Z" fill="#0A84FF"/>
</svg>
